<svg width="250" height="50" viewBox="0 0 250 50" fill="none" xmlns="http://www.w3.org/2000/svg">
<path d="M73.989 0L79.1478 17.2746H95.8423L82.3362 27.9508L87.4951 45.2254L73.989 34.5491L60.4829 45.2254L65.6417 27.9508L52.1356 17.2746H68.8301L73.989 0Z" fill="#FF8778"/>
<path d="M125 0L130.159 17.2746H146.853L133.347 27.9508L138.506 45.2254L125 34.5491L111.494 45.2254L116.653 27.9508L103.147 17.2746H119.841L125 0Z" fill="#FF8778"/>
<path d="M176.011 0L181.17 17.2746H197.864L184.358 27.9508L189.517 45.2254L176.011 34.5491L162.505 45.2254L167.664 27.9508L154.158 17.2746H170.852L176.011 0Z" fill="#FF8778"/>
<path d="M227.022 0L232.181 17.2746H248.875L235.369 27.9508L240.528 45.2254L227.022 34.5491L213.516 45.2254L218.675 27.9508L205.169 17.2746H221.863L227.022 0Z" fill="#FF8778"/>
<path d="M22.9779 0L28.1368 17.2746H44.8313L31.3252 27.9508L36.484 45.2254L22.9779 34.5491L9.47185 45.2254L14.6307 27.9508L1.12462 17.2746H17.8191L22.9779 0Z" fill="#9C122B"/>
</svg>
