<svg width="82" height="81" viewBox="0 0 82 81" fill="none" xmlns="http://www.w3.org/2000/svg">
<g clip-path="url(#clip0_25_109)">
<path d="M81.1429 40.5C81.1429 18.1302 62.9807 0 40.5714 0C18.1621 0 0 18.1302 0 40.5C0 60.7184 14.8339 77.4721 34.2321 80.5096V52.207H23.9307V40.5H34.2321V31.5773C34.2321 21.4285 40.2862 15.8203 49.5573 15.8203C53.9948 15.8203 58.6384 16.6113 58.6384 16.6113V26.5781H53.5195C48.4796 26.5781 46.9107 29.7027 46.9107 32.9062V40.5H58.1629L56.3642 52.207H46.9107V80.5096C66.3089 77.4721 81.1429 60.7184 81.1429 40.5Z" fill="#1877F2"/>
<path d="M56.3641 52.207L58.1628 40.5H46.9107V32.9062C46.9107 29.7027 48.4796 26.5781 53.5194 26.5781H58.6383V16.6113C58.6383 16.6113 53.9948 15.8203 49.5573 15.8203C40.2862 15.8203 34.2321 21.4285 34.2321 31.5773V40.5H23.9307V52.207H34.2321V80.5096C36.3002 80.834 38.416 81 40.5714 81C42.7267 81 44.8425 80.834 46.9107 80.5096V52.207H56.3641Z" fill="white"/>
</g>
<defs>
<clipPath id="clip0_25_109">
<rect width="81.1429" height="81" fill="white"/>
</clipPath>
</defs>
</svg>
